<?xml version="1.0" encoding="UTF-8"?>
<svg id="Calque_1" data-name="Calque 1" xmlns="http://www.w3.org/2000/svg" version="1.1" viewBox="0 0 23 21">
  <defs>
    <style>
      .cls-1 {
        opacity: .2;
      }

      .cls-1, .cls-2, .cls-3, .cls-4, .cls-5, .cls-6, .cls-7 {
        fill: #fff;
        stroke-width: 0px;
      }

      .cls-2 {
        opacity: .7;
      }

      .cls-3 {
        opacity: 0;
      }

      .cls-4 {
        opacity: .1;
      }

      .cls-5 {
        opacity: 0;
      }

      .cls-6 {
        opacity: .5;
      }
    </style>
  </defs>
  <path class="cls-4" d="M11.3,20.9c-.3-.1-.6-.3-.7-.7,0,0,0-.2,0-.3,0-1.3,0-2.5,0-3.8,0-.6.4-1,.9-1,.5,0,.9.4.9,1,0,1.2,0,2.5,0,3.7,0,.5-.2.8-.7,1,0,0,0,0,0,0h-.4Z"/>
  <path class="cls-2" d="M18.2,3.1c.4,0,.6.2.8.5.2.3.1.7,0,1,0,0,0,0-.1.1-.9.9-1.8,1.8-2.7,2.7-.3.3-.6.3-.9.2-.4-.1-.6-.3-.7-.7,0-.3,0-.6.2-.8.9-.9,1.8-1.8,2.7-2.7.2-.2.4-.3.7-.3Z"/>
  <path class="cls-7" d="M12.4,2.9c0,.6,0,1.2,0,1.9,0,.6-.4,1-.9,1-.5,0-.9-.4-.9-1,0-1.2,0-2.5,0-3.7,0-.6.4-1,.9-1,.5,0,.9.4.9,1,0,.6,0,1.2,0,1.8Z"/>
  <path class="cls-1" d="M14.5,14.4c0-.3.2-.6.6-.8.4-.2.7,0,1,.2.5.5,1.1,1.1,1.6,1.6.4.4.7.7,1.1,1.1.4.4.4,1,0,1.4-.4.4-1,.4-1.4,0-.9-.9-1.8-1.8-2.6-2.6-.2-.2-.3-.4-.3-.8Z"/>
  <path class="cls-6" d="M19,11.4c-.6,0-1.2,0-1.9,0-.6,0-1-.4-1-.9,0-.5.4-.9,1-.9,1.3,0,2.5,0,3.8,0,.5,0,1,.4,1,.9,0,.5-.4.9-1,.9-.6,0-1.3,0-1.9,0Z"/>
  <path class="cls-3" d="M3.9,11.4c-.6,0-1.2,0-1.9,0-.6,0-1-.4-1-.9,0-.5.4-.9,1-.9,1.3,0,2.5,0,3.8,0,.5,0,1,.4,1,.9,0,.5-.4.9-1,.9-.6,0-1.3,0-1.9,0Z"/>
  <path class="cls-5" d="M7.6,13.5c.4,0,.7.2.8.6.1.4,0,.7-.2,1-.9.9-1.9,1.9-2.8,2.8-.4.3-.9.3-1.3,0-.4-.4-.4-.9,0-1.3.9-.9,1.9-1.9,2.8-2.8.2-.2.4-.2.7-.2Z"/>
</svg>