<?xml version="1.0" encoding="UTF-8"?>
<svg id="Calque_1" data-name="Calque 1" xmlns="http://www.w3.org/2000/svg" version="1.1" viewBox="0 0 23 21">
  <defs>
    <style>
      .cls-1 {
        fill: #fff;
        stroke-width: 0px;
      }
    </style>
  </defs>
  <path class="cls-1" d="M16.6,17c0,.5,0,.9,0,1.4,0,1.3-.9,2.2-2.2,2.2-1.9,0-3.8,0-5.7,0-1.3,0-2.2-.9-2.2-2.2,0-.5,0-.9,0-1.4,0,0-.2,0-.2,0-.9,0-1.7,0-2.6,0-1.3,0-2.3-.9-2.3-2.3,0-1.9,0-3.7,0-5.6,0-1.3.8-2.2,2.1-2.3,0,0,0,0,0,0,0-.4,0-.9,0-1.3,0-1.4.9-2.3,2.3-2.3.2,0,.4,0,.6,0,0-.2,0-.4,0-.6,0-1.4.9-2.3,2.3-2.3,1.9,0,3.7,0,5.6,0,1.4,0,2.3.9,2.3,2.3,0,.2,0,.4,0,.6.4,0,.7,0,1.1,0,1,.2,1.8,1,1.8,2.1,0,.4,0,.9,0,1.3,0,0,0,.1,0,.2.7,0,1.3.3,1.7.9.3.4.4.8.4,1.2,0,2,0,3.9,0,5.9,0,1.2-1,2.1-2.1,2.1-.9,0-1.8,0-2.7,0,0,0-.2,0-.3,0ZM16.6,15.6c1,0,1.9,0,2.8,0,.5,0,.8-.3.8-.8,0-1.9,0-3.8,0-5.6,0-.5-.3-.8-.8-.8-5.2,0-10.5,0-15.7,0-.5,0-.8.3-.8.8,0,1.9,0,3.7,0,5.6,0,.5.3.8.8.8.9,0,1.7,0,2.6,0,0,0,.1,0,.2,0v-1.4c-.2,0-.4,0-.6,0-.5,0-.8-.3-.8-.7,0-.4.3-.7.8-.7,3.8,0,7.6,0,11.4,0,.5,0,.8.3.8.7,0,.4-.3.7-.8.7-.2,0-.4,0-.7,0v1.4ZM7.9,6.9h7.2s0,0,0,0c0-1.4,0-2.8,0-4.2,0-.5-.3-.7-.8-.7-1.9,0-3.8,0-5.7,0-.5,0-.8.3-.8.8,0,.6,0,1.2,0,1.7,0,.8,0,1.7,0,2.5ZM7.9,14.1c0,0,0,.2,0,.2,0,1.3,0,2.7,0,4,0,.6.3.8.8.8,1.9,0,3.7,0,5.6,0,.6,0,.8-.3.8-.8,0-1.3,0-2.7,0-4v-.2h-7.2ZM16.6,4.7v2.2h1.4c0-.5,0-1,0-1.5,0-.4-.3-.7-.7-.7-.2,0-.5,0-.8,0ZM6.4,6.9v-2.2c-.3,0-.5,0-.8,0-.3,0-.6.3-.7.6,0,.5,0,1,0,1.6h1.4Z"/>
  <path class="cls-1" d="M5,11.2c-.2,0-.5,0-.7,0-.4,0-.7-.3-.7-.7,0-.4.3-.7.7-.7.5,0,.9,0,1.4,0,.4,0,.7.3.7.7,0,.4-.3.7-.7.7-.2,0-.5,0-.7,0Z"/>
  <path class="cls-1" d="M11.5,16.3c-.7,0-1.4,0-2.1,0-.5,0-.8-.3-.8-.7,0-.4.3-.7.8-.7,1.4,0,2.8,0,4.2,0,.5,0,.8.3.8.7,0,.4-.3.7-.8.7-.7,0-1.4,0-2.1,0Z"/>
  <path class="cls-1" d="M11.5,17c.7,0,1.4,0,2.1,0,.5,0,.8.3.8.7,0,.4-.3.7-.8.7-1.4,0-2.8,0-4.2,0-.5,0-.8-.3-.8-.7,0-.4.3-.7.8-.7.7,0,1.4,0,2.1,0Z"/>
</svg>