<?xml version="1.0" encoding="UTF-8"?>
<svg id="Calque_1" data-name="Calque 1" xmlns="http://www.w3.org/2000/svg" version="1.1" viewBox="0 0 21 21">
  <defs>
    <style>
      .cls-1 {
        fill: #fff;
        stroke-width: 0px;
      }
    </style>
  </defs>
  <path class="cls-1" d="M17.5,20.6v-5.9c0-1.1-.8-1.9-1.9-1.9H5.4c-1.1,0-1.9.8-1.9,1.9v5.8c-.6,0-1.3.1-1.9-.1-.7-.3-1.2-.9-1.2-1.8V2.2C.4,1,1.2.3,2.3.3h2.3v5.8c0,1.3.7,2,2,2h7.1c.9,0,1.6-.6,1.8-1.4V.3c.4,0,.8.2,1.1.5,1.2,1.2,2.4,2.4,3.6,3.6.3.3.5.8.5,1.3v13c0,1-.8,1.8-1.8,1.8h-1.4Z"/>
  <path class="cls-1" d="M5,20.6v-5.8c0-.3,0-.4.4-.4h10.1c.3,0,.4,0,.4.4v5.6c0,1.9,0,.1,0,.2H5Z"/>
  <path class="cls-1" d="M13.9.4v5.8c0,.3,0,.4-.4.4h-7c-.3,0-.4,0-.4-.3V.5h7.8ZM11.3,4.3v1c0,.5.3.8.8.8s.8-.3.8-.8v-2c0-.5-.3-.8-.8-.8s-.8.3-.8.8v1Z"/>
</svg>