<svg width="33" height="21" viewBox="0 0 33 21" fill="none" xmlns="http://www.w3.org/2000/svg">
<g id="Vector">
<path id="Vector_2" d="M29.792 3.18115C30.6462 4.03532 31.2972 5.00407 31.7451 6.0874C32.193 7.17074 32.4222 8.32178 32.4326 9.54053C32.4326 9.90511 32.4222 10.3426 32.4014 10.853C32.3805 11.3634 32.3389 11.9155 32.2764 12.5093C32.2139 13.103 32.1149 13.7124 31.9795 14.3374C31.8441 14.9624 31.6722 15.5822 31.4639 16.1968C31.1514 17.0926 30.7868 17.8218 30.3701 18.3843C29.9535 18.9468 29.5212 19.3895 29.0732 19.7124C28.6253 20.0353 28.1722 20.2541 27.7139 20.3687C27.2555 20.4832 26.8285 20.5405 26.4326 20.5405C26.0889 20.5405 25.7764 20.4832 25.4951 20.3687C25.2139 20.2541 24.943 20.0978 24.6826 19.8999C24.4222 19.702 24.1826 19.4884 23.9639 19.2593C23.7451 19.0301 23.5212 18.7801 23.292 18.5093C23.0732 18.2593 22.8597 18.0197 22.6514 17.7905C22.443 17.5614 22.2191 17.3582 21.9795 17.1812C21.7399 17.0041 21.5003 16.853 21.2607 16.728C21.0212 16.603 20.7399 16.5405 20.417 16.5405H12.4482C12.1462 16.5509 11.8701 16.6134 11.6201 16.728C11.3701 16.8426 11.1253 16.9884 10.8857 17.1655C10.6462 17.3426 10.4274 17.5509 10.2295 17.7905C10.0316 18.0301 9.81283 18.2697 9.57324 18.5093C9.35449 18.7593 9.13574 19.0041 8.91699 19.2437C8.69824 19.4832 8.45866 19.702 8.19824 19.8999C7.93783 20.0978 7.66699 20.2489 7.38574 20.353C7.10449 20.4572 6.78678 20.5197 6.43262 20.5405C6.03678 20.5405 5.6097 20.4832 5.15137 20.3687C4.69303 20.2541 4.23991 20.0405 3.79199 19.728C3.34408 19.4155 2.91178 18.9728 2.49512 18.3999C2.07845 17.827 1.71387 17.0926 1.40137 16.1968C1.19303 15.5926 1.02637 14.978 0.901367 14.353C0.776367 13.728 0.677409 13.1134 0.604492 12.5093C0.531576 11.9051 0.484701 11.353 0.463867 10.853C0.443034 10.353 0.432617 9.91553 0.432617 9.54053C0.432617 8.33219 0.656576 7.18636 1.10449 6.10303C1.55241 5.01969 2.20866 4.04574 3.07324 3.18115C3.91699 2.32699 4.88574 1.67594 5.97949 1.22803C7.07324 0.780111 8.22428 0.550944 9.43262 0.540527H23.4326C24.641 0.540527 25.7868 0.764486 26.8701 1.2124C27.9535 1.66032 28.9274 2.31657 29.792 3.18115ZM29.5732 15.5405C29.7712 14.9884 29.9274 14.4155 30.042 13.8218C30.1566 13.228 30.2399 12.6603 30.292 12.1187C30.3441 11.577 30.3805 11.077 30.4014 10.6187C30.4222 10.1603 30.4326 9.80094 30.4326 9.54053C30.4326 8.57178 30.2503 7.66553 29.8857 6.82178C29.5212 5.97803 29.0212 5.23844 28.3857 4.60303C27.7503 3.96761 27.0107 3.46761 26.167 3.10303C25.3232 2.73844 24.4118 2.55094 23.4326 2.54053H9.43262C8.46387 2.54053 7.55762 2.72282 6.71387 3.0874C5.87012 3.45199 5.13053 3.95199 4.49512 4.5874C3.8597 5.22282 3.3597 5.9624 2.99512 6.80615C2.63053 7.6499 2.44303 8.56136 2.43262 9.54053C2.43262 9.81136 2.43783 10.1707 2.44824 10.6187C2.45866 11.0666 2.49512 11.5614 2.55762 12.103C2.62012 12.6447 2.70866 13.2176 2.82324 13.8218C2.93783 14.4259 3.09408 14.9989 3.29199 15.5405C3.55241 16.2905 3.83887 16.8687 4.15137 17.2749C4.46387 17.6812 4.76595 17.978 5.05762 18.1655C5.34928 18.353 5.62012 18.4624 5.87012 18.4937C6.12012 18.5249 6.30762 18.5405 6.43262 18.5405C6.66178 18.5405 6.91178 18.4051 7.18262 18.1343C7.45345 17.8634 7.74512 17.5509 8.05762 17.1968C8.30762 16.9051 8.57324 16.6082 8.85449 16.3062C9.13574 16.0041 9.45345 15.7228 9.80762 15.4624C10.1618 15.202 10.5524 14.9884 10.9795 14.8218C11.4066 14.6551 11.8805 14.5614 12.4014 14.5405H20.4639C20.9847 14.5614 21.4587 14.6551 21.8857 14.8218C22.3128 14.9884 22.6982 15.1968 23.042 15.4468C23.3857 15.6968 23.7035 15.978 23.9951 16.2905C24.2868 16.603 24.5576 16.9051 24.8076 17.1968C25.1097 17.5405 25.3962 17.8478 25.667 18.1187C25.9378 18.3895 26.193 18.5301 26.4326 18.5405C26.5576 18.5405 26.7399 18.5249 26.9795 18.4937C27.2191 18.4624 27.4899 18.353 27.792 18.1655C28.0941 17.978 28.4014 17.6812 28.7139 17.2749C29.0264 16.8687 29.3128 16.2905 29.5732 15.5405ZM8.43262 8.54053H10.4326V10.5405H8.43262V12.5405H6.43262V10.5405H4.43262V8.54053H6.43262V6.54053H8.43262V8.54053ZM26.4326 10.5405C26.7139 10.5405 26.9743 10.5926 27.2139 10.6968C27.4535 10.8009 27.6618 10.9416 27.8389 11.1187C28.016 11.2957 28.1618 11.5093 28.2764 11.7593C28.391 12.0093 28.443 12.2697 28.4326 12.5405C28.4326 12.8218 28.3805 13.0822 28.2764 13.3218C28.1722 13.5614 28.0316 13.7697 27.8545 13.9468C27.6774 14.1239 27.4639 14.2697 27.2139 14.3843C26.9639 14.4989 26.7035 14.5509 26.4326 14.5405C26.1514 14.5405 25.891 14.4884 25.6514 14.3843C25.4118 14.2801 25.2035 14.1395 25.0264 13.9624C24.8493 13.7853 24.7035 13.5718 24.5889 13.3218C24.4743 13.0718 24.4222 12.8114 24.4326 12.5405C24.4326 12.2593 24.4847 11.9989 24.5889 11.7593C24.693 11.5197 24.8337 11.3114 25.0107 11.1343C25.1878 10.9572 25.4014 10.8114 25.6514 10.6968C25.9014 10.5822 26.1618 10.5301 26.4326 10.5405ZM22.4326 6.54053C22.7139 6.54053 22.9743 6.59261 23.2139 6.69678C23.4535 6.80094 23.6618 6.94157 23.8389 7.11865C24.016 7.29574 24.1618 7.50928 24.2764 7.75928C24.391 8.00928 24.443 8.26969 24.4326 8.54053C24.4326 8.82178 24.3805 9.08219 24.2764 9.32178C24.1722 9.56136 24.0316 9.76969 23.8545 9.94678C23.6774 10.1239 23.4639 10.2697 23.2139 10.3843C22.9639 10.4989 22.7035 10.5509 22.4326 10.5405C22.1514 10.5405 21.891 10.4884 21.6514 10.3843C21.4118 10.2801 21.2035 10.1395 21.0264 9.9624C20.8493 9.78532 20.7035 9.57178 20.5889 9.32178C20.4743 9.07178 20.4222 8.81136 20.4326 8.54053C20.4326 8.25928 20.4847 7.99886 20.5889 7.75928C20.693 7.51969 20.8337 7.31136 21.0107 7.13428C21.1878 6.95719 21.4014 6.81136 21.6514 6.69678C21.9014 6.58219 22.1618 6.53011 22.4326 6.54053Z" fill="white"/>
</g>
</svg>
