<svg width="10" height="10" viewBox="0 0 10 10" fill="none" xmlns="http://www.w3.org/2000/svg">
<g id="Vector">
<path id="Vector_2" d="M9.38314 8.33961C9.50386 8.46033 9.57168 8.62406 9.57168 8.79478C9.57168 8.9655 9.50386 9.12922 9.38314 9.24994C9.26241 9.37066 9.09868 9.43848 8.92795 9.43848C8.75722 9.43848 8.59348 9.37066 8.47276 9.24994L5.07275 5.84907L1.67168 9.24887C1.55096 9.36959 1.38722 9.43741 1.21649 9.43741C1.04576 9.43741 0.882024 9.36959 0.7613 9.24887C0.640576 9.12815 0.572754 8.96443 0.572754 8.79371C0.572754 8.62299 0.640576 8.45926 0.7613 8.33854L4.16237 4.93874L0.762371 1.53787C0.641647 1.41716 0.573825 1.25343 0.573825 1.08271C0.573825 0.911991 0.641647 0.748263 0.762371 0.627547C0.883095 0.50683 1.04683 0.439012 1.21756 0.439012C1.38829 0.439012 1.55203 0.50683 1.67275 0.627547L5.07275 4.02842L8.47383 0.627011C8.59455 0.506294 8.75829 0.438477 8.92902 0.438477C9.09975 0.438477 9.26348 0.506294 9.38421 0.627011C9.50493 0.747728 9.57275 0.911455 9.57275 1.08217C9.57275 1.25289 9.50493 1.41662 9.38421 1.53734L5.98313 4.93874L9.38314 8.33961Z" fill="white"/>
</g>
</svg>
