<svg width="21" height="21" viewBox="0 0 21 21" fill="none" xmlns="http://www.w3.org/2000/svg">
<g id="Vector">
<path id="Vector_2" d="M0.371582 20.4299L2.12597 13.4825L12.5821 3.02637L17.7751 8.21935L7.31894 18.6755L0.371582 20.4299ZM3.38912 14.1843L2.33649 18.465L6.61719 17.4123L15.8102 8.21935L12.5821 4.99128L3.38912 14.1843Z" fill="white"/>
<path id="Vector_3" d="M6.12582 18.2546C5.70477 16.5002 4.30126 15.0967 2.54688 14.6756L2.89775 13.3423C5.14336 13.9037 6.89775 15.6581 7.45915 17.9037L6.12582 18.2546Z" fill="white"/>
<path id="Vector_4" d="M14.1947 5.61368L15.187 6.60596L6.05716 15.7428L5.06488 14.7533L14.1947 5.61368ZM1.354 19.4474L3.38909 18.9561C3.17856 18.1842 2.61716 17.6228 1.84523 17.4123L1.354 19.4474ZM18.1961 7.79824L13.0031 2.60526L15.1084 0.5L15.4593 0.570176C17.9856 0.921053 19.9505 2.88596 20.3014 5.41228L20.3715 5.76315L18.1961 7.79824ZM14.968 2.60526L18.1961 5.83333L18.8277 5.20175C18.4768 3.58772 17.2136 2.32456 15.5996 1.97368L14.968 2.60526Z" fill="white"/>
</g>
</svg>
